<svg width="36" height="33" viewBox="0 0 36 33" fill="none" xmlns="http://www.w3.org/2000/svg">
<path d="M14.142 25.6729C16.956 23.9809 20.777 21.8659 24.041 18.6019C31.071 11.5729 36.77 1.63187 35.355 0.216871C33.941 -1.19713 24 4.50187 16.97 11.5309C13.705 14.7959 11.591 18.6159 9.89899 21.4299L14.142 25.6729Z" fill="#3B88C3"/>
<path d="M0 32.7439C0 32.7439 7.071 34.1579 12.021 29.2079C14.142 27.0869 14.142 24.2589 14.142 24.2589L11.313 21.4299C11.313 21.4299 7.778 22.1379 6.363 23.5519C4.949 24.9659 3.845 27.7839 3.475 29.1499C2.799 31.6519 0 32.7439 0 32.7439Z" fill="#C1694F"/>
<path d="M17.454 23.3279L12.286 18.1599C11.895 17.7689 11.328 17.8339 11.016 18.3049L9.89298 20.0099C9.58198 20.4809 9.62198 21.1519 9.97998 21.5109L14.102 25.6339C14.46 25.9919 15.132 26.0309 15.603 25.7209L17.308 24.5969C17.78 24.2859 17.844 23.7189 17.454 23.3279Z" fill="#CCD6DD"/>
<path d="M10.801 30.2599C9.61 31.0289 8.975 30.3879 9.192 29.6509C9.413 28.8999 9.072 28.0029 7.955 28.2369C6.838 28.4699 6.099 27.8829 6.452 26.4699C6.8 25.0769 5.367 24.6069 4.698 26.0349C4.116 27.1949 3.681 28.3939 3.476 29.1499C2.799 31.6529 0 32.7449 0 32.7449C0 32.7449 5.988 33.9289 10.801 30.2599Z" fill="#A0041E"/>
</svg>
