<svg width="34" height="32" viewBox="0 0 34 32" fill="none" xmlns="http://www.w3.org/2000/svg">
<path d="M30 12C30 13.104 29.104 14 28 14H6C4.896 14 4 13.104 4 12V4C4 2.896 4.896 2 6 2H28C29.104 2 30 2.896 30 4V12Z" fill="#FDCB58"/>
<path d="M32 16C32 17.104 31.104 18 30 18H4C2.896 18 2 17.104 2 16V8C2 6.896 2.896 6 4 6H30C31.104 6 32 6.896 32 8V16Z" fill="#FDD888"/>
<path d="M34 30C34 31.104 33.104 32 32 32H2C0.896 32 0 31.104 0 30V12C0 10.896 0.896 10 2 10H32C33.104 10 34 10.896 34 12V30Z" fill="#FEE7B8"/>
<path d="M22 0H17C15.896 0 15 0.895 15 2V3H17C18.104 3 19 3.896 19 5H22C23.104 5 24 4.104 24 3V2C24 0.895 23.104 0 22 0Z" fill="#78B159"/>
<path d="M16 4H11C9.896 4 9 4.896 9 6V7H11C12.104 7 13 7.896 13 9H16C17.104 9 18 8.104 18 7V6C18 4.896 17.104 4 16 4Z" fill="#F18F26"/>
<path d="M12 11C12 12.104 11.104 13 10 13H5C3.896 13 3 12.104 3 11V10C3 8.896 3.896 8 5 8H10C11.104 8 12 8.896 12 10V11Z" fill="#9268CA"/>
</svg>
