<svg width="65" height="59" viewBox="0 0 65 59" fill="none" xmlns="http://www.w3.org/2000/svg">
<path d="M11.75 43.8333H8.83333C7.28624 43.8333 5.80251 43.2188 4.70854 42.1248C3.61458 41.0308 3 39.5471 3 38V8.83333C3 7.28624 3.61458 5.80251 4.70854 4.70854C5.80251 3.61458 7.28624 3 8.83333 3H55.5C57.0471 3 58.5308 3.61458 59.6248 4.70854C60.7187 5.80251 61.3333 7.28624 61.3333 8.83333V38C61.3333 39.5471 60.7187 41.0308 59.6248 42.1248C58.5308 43.2188 57.0471 43.8333 55.5 43.8333H52.5833M32.1667 38L46.75 55.5H17.5833L32.1667 38Z" stroke="white" stroke-width="6" stroke-linecap="round" stroke-linejoin="round"/>
</svg>
