<svg width="54" height="54" viewBox="0 0 54 54" fill="none" xmlns="http://www.w3.org/2000/svg">
<g filter="url(#filter0_d_2_10)">
<path d="M24 5C24 2.23858 26.2386 0 29 0C31.7614 0 34 2.23858 34 5V45C34 47.7614 31.7614 50 29 50C26.2386 50 24 47.7614 24 45V5Z" fill="white"/>
<path d="M9 30C6.23858 30 4 27.7614 4 25C4 22.2386 6.23858 20 9 20H49C51.7614 20 54 22.2386 54 25C54 27.7614 51.7614 30 49 30H9Z" fill="white"/>
</g>
<defs>
<filter id="filter0_d_2_10" x="0" y="0" width="54" height="54" filterUnits="userSpaceOnUse" color-interpolation-filters="sRGB">
<feFlood flood-opacity="0" result="BackgroundImageFix"/>
<feColorMatrix in="SourceAlpha" type="matrix" values="0 0 0 0 0 0 0 0 0 0 0 0 0 0 0 0 0 0 127 0" result="hardAlpha"/>
<feOffset dx="-4" dy="4"/>
<feComposite in2="hardAlpha" operator="out"/>
<feColorMatrix type="matrix" values="0 0 0 0 0 0 0 0 0 0 0 0 0 0 0 0 0 0 0.25 0"/>
<feBlend mode="normal" in2="BackgroundImageFix" result="effect1_dropShadow_2_10"/>
<feBlend mode="normal" in="SourceGraphic" in2="effect1_dropShadow_2_10" result="shape"/>
</filter>
</defs>
</svg>
