<svg width="42" height="42" viewBox="0 0 42 42" fill="none" xmlns="http://www.w3.org/2000/svg">
<g clip-path="url(#clip0_22_38)">
<path d="M21 15.75V21L23.625 23.625M28.8925 30.3625L28.28 37.065C28.2012 37.9377 27.7979 38.749 27.1498 39.3387C26.5018 39.9284 25.6562 40.2536 24.78 40.25H17.2025C16.3263 40.2536 15.4807 39.9284 14.8327 39.3387C14.1846 38.749 13.7813 37.9377 13.7025 37.065L13.09 30.3625M13.1075 11.6375L13.72 4.93503C13.7986 4.06541 14.1994 3.25658 14.8437 2.6673C15.488 2.07801 16.3293 1.75085 17.2025 1.75003H24.815C25.6912 1.74647 26.5368 2.07168 27.1848 2.66138C27.8329 3.25109 28.2362 4.0624 28.315 4.93503L28.9275 11.6375M33.25 21C33.25 27.7655 27.7655 33.25 21 33.25C14.2345 33.25 8.75 27.7655 8.75 21C8.75 14.2345 14.2345 8.75003 21 8.75003C27.7655 8.75003 33.25 14.2345 33.25 21Z" stroke="white" stroke-width="4" stroke-linecap="round" stroke-linejoin="round"/>
</g>
<defs>
<clipPath id="clip0_22_38">
<rect width="42" height="42" fill="white"/>
</clipPath>
</defs>
</svg>
